# xmcd
#
# Track frame offsets: 
#        150
#        12171
#        25141
#        38137
#        52797
#        65349
#        77242
#        90777
#        103859
#        118178
#        130883
#        143808
#        157132
#        169221
#        180953
#        193201
#        205039
#        217519
#        232574
#        246720
#        261664
#
# Disc length: 3630 seconds
#
# Revision: 2
# Processed by: cddbd v1.5.2PL0 Copyright (c) Steve Scherf et al.
# Submitted via: ExactAudioCopy v0.99pb5
#
DISCID=1a0e2c15
DTITLE=Dinah Washington - Centurion Jazz
DYEAR=2004
DGENRE=Jazz
TTITLE0=Since I Fell For You
TTITLE1=That's Why A Woman Loves A Heel
TTITLE2=I Want To Be Loved
TTITLE3=Resolution Blues
TTITLE4=Why Can't You Behave
TTITLE5=I Love You, Yes I Do
TTITLE6=Stairway To The Stars
TTITLE7=Embraceable You
TTITLE8=I Want To Cry
TTITLE9=Am I Asking Too Much
TTITLE10=All Or Nothing Blues
TTITLE11=Westside Baby
TTITLE12=Oo Wee Walkie Talkie
TTITLE13=It's Funny
TTITLE14=You Can Depend On Me
TTITLE15=What Can I Say After I Say I'm Sorry
TTITLE16=I Can't Give You Anything But Love
TTITLE17=Cold, Cold Heart
TTITLE18=Don't Get Around Much Any More
TTITLE19=Feel Like I Wanna Cry
TTITLE20=Go Pretty Daddy
EXTD=
EXTT0=
EXTT1=
EXTT2=
EXTT3=
EXTT4=
EXTT5=
EXTT6=
EXTT7=
EXTT8=
EXTT9=
EXTT10=
EXTT11=
EXTT12=
EXTT13=
EXTT14=
EXTT15=
EXTT16=
EXTT17=
EXTT18=
EXTT19=
EXTT20=
PLAYORDER=
